<?xml version="1.0" encoding="UTF-8"?>
<svg version="1.1" viewBox="0 0 2048 643" width="1280" height="1280" xmlns="http://www.w3.org/2000/svg">
<path transform="translate(0)" d="m0 0h2048v643h-2048z" fill="#FDFCFC"/>
<path transform="translate(303,12)" d="m0 0h42l31 4 27 6 26 8 22 9 19 9 19 11 12 8 16 12 11 9 12 11 15 15 9 11 10 12 18 27 13 24 10 24 7 21 6 24 4 23 2 22v52l-3 23-5 24-8 26-9 22-8 17-12 21-13 19-10 13-12 14-27 27-14 11-14 10-21 13-17 9-28 12-28 9-24 5-25 4-27 2h-13l-26-2-32-5-25-6-21-7-21-9-16-8-16-9-15-10-12-9-11-9-13-11-16-16-9-11-11-13-11-16-12-20-12-23-12-31-7-25-4-18-4-30v-50l3-24 5-24 8-27 11-27 8-16 11-20 8-12 11-15 9-11 18-20 16-15 14-11 12-9 19-12 22-12 24-10 24-8 25-6 23-4z" fill="#FCD926"/>
<path transform="translate(790,278)" d="m0 0h21l12 4 10 8 6 7 7-6 10-7 8-4 9-2h18l13 4 9 6 7 9 5 14 1 8v69l-1 19h-47l-1-1-1-77-3-7-5-4-10-1-7 3-4 5-3 8-1 64-1 9-1 1h-45l-2-3-1-77-4-7-7-3h-8l-7 4-5 8-1 4-1 52-1 21-2 1h-45l-1-1v-125h45l1 12 1 3 8-7 11-7z" fill="#221F22"/>
<path transform="translate(380,135)" d="m0 0h15l10 5 10 9 9 14 8 18 5 16 4 21v18l-3 12-4 11-10 13-12 10-6 4-5 5-5 8-1 4v14l2 46 5 57 6 41 1 5v15l-5 10-8 7-4 2h-11l-7-4-5-5-3-6-1-6v-18l5-38 5-49 2-33v-42l-1-9-5-2-17-12-11-11-7-12-4-16-1-11 5-28 7-21 8-17 8-11 10-9z" fill="#221F22"/>
<path transform="translate(1094,233)" d="m0 0h49l1 1 1 80 1 6 12-14 7-8 12-14 3-3h57l-2 5-20 20-16 15-2 2 1 7 13 23 9 15 14 24 7 13v2h-52l-4-4-22-44-4 1-13 13-1 3-1 30-2 1h-47l-1-1z" fill="#221F22"/>
<path transform="translate(1586,233)" d="m0 0h48l1 62 13-10 11-5 9-2h18l10 3 10 6 6 7 5 11 2 7 1 14v71l-1 10h-48l-1-75-3-9-4-4-5-2h-7l-7 3-5 5-3 8-1 15-1 58-1 1h-46l-1-1z" fill="#221F22"/>
<path transform="translate(1797,278)" d="m0 0h26l14 2 16 6 10 7 7 7 6 10 5 12 3 15v18l-2 1h-94l2 10 4 7 7 6 3 1h14l7-3 9-7 30 2 13 1 3 3-6 10-10 10-14 8-18 5-8 1h-24l-15-2-16-6-12-9-7-8-8-14-4-16v-21l4-16 6-12 9-11 10-7 10-5 13-4z" fill="#221F22"/>
<path transform="translate(975,280)" d="m0 0h11l4 8 12 39 8 25 4 9 21-72 2-8 47-1-1 8-18 49-18 48-14 37-10 19-8 8-14 7-11 2h-21l-20-3-3-4-2-12-1-16 3-1 12 2h12l11-4 6-9 1-5-14-34-17-40-18-43-2-5v-3z" fill="#221F22"/>
<path transform="translate(193,132)" d="m0 0h61l22 1 7 2 2 2v94l-2 11-4 7-10 6-16 4-4 8-4 14-6 1-20-1-3-9-4-14-15-3-10-5-4-5-2-6-1-14 1-73 1-14 2-4z" fill="#221F22"/>
<path transform="translate(1983,278)" d="m0 0h18l13 4 6 4 5 4 6 10 3 9 1 5v92l-1 1h-47l-2-80-3-6-8-4h-9l-7 4-5 8-2 11-1 66-1 1h-47v-126l44-1 1 1v18l8-7 9-7 10-5z" fill="#221F22"/>
<path transform="translate(1486,278)" d="m0 0h28l16 3 13 5 11 8 8 9 7 14v4l-16 3-22 3-7-1-6-9-4-3-9-2h-8l-9 3-6 5-5 10-2 8v14l3 10 6 9 6 4 4 1h12l9-3 5-4 7-11 15 1 29 3 1 3-5 13-7 10-8 8-14 8-16 5-7 1h-25l-14-2-13-4-11-6-12-11-7-9-5-13-2-17 1-19 3-12 7-13 12-12 13-8 11-4z" fill="#221F22"/>
<path transform="translate(1385,234)" d="m0 0h2v46l27 1v33l-1 2-5 1h-21l1 50 3 6 3 2 11-1 6-1 1 1 3 21v8l-3 3-11 3-9 1h-20l-10-2-10-5-5-5-4-5-4-15-1-9v-52l-17-1-1-7v-17l1-11 17-1v-22l10-6 24-12z" fill="#221F22"/>
<path transform="translate(154,506)" d="m0 0 8 1 13 10 11 8 15 9 16 8 21 9 19 6 27 6 22 3h36l30-5 26-7 20-7 28-13 21-12 23-15 2-1h7l4 6 1 8-5 5-11 8-23 14-23 12-18 8-25 9-23 6-15 3-32 3h-22l-27-3-27-6-27-9-20-9-23-12-16-11-10-8-8-8-2-4v-5l5-6z" fill="#FDFDFD"/>
<path transform="translate(1254,280)" d="m0 0h47l1 1v125l-1 1h-46l-1-2z" fill="#221F22"/>
<path transform="translate(228,287)" d="m0 0h7l5 3 5 156v32l-3 9-3 3-3 1h-13l-6-4-3-7v-12l2-27 3-69 3-61 1-20z" fill="#221F22"/>
<path transform="translate(1254,233)" d="m0 0h48v32l-1 1h-46l-1-1z" fill="#221F22"/>
<path transform="translate(1805,307)" d="m0 0h13l8 4 5 6 4 13v2l-3 1h-43l-1-1v-7l5-10 8-7z" fill="#FDFCF9"/>
<path transform="translate(213,147)" d="m0 0h5l1 1v68l-1 18h-7v-83z" fill="#EDD914"/>
<path transform="translate(247,148)" d="m0 0h8v45l-1 41-1 1h-6z" fill="#ECD912"/>
<path transform="translate(231,149)" d="m0 0 5 1 1 6v44l-1 31-1 5h-5l-1-6v-62l1-17z" fill="#EED914"/>
<path transform="translate(266,158)" d="m0 0h6l1 2v63l-2 5-4 1-1-1-1-14v-35z" fill="#EED914"/>
<path transform="translate(196,154)" d="m0 0 4 2v58l-1 12-3 1-2-1-1-4v-46l1-20z" fill="#ECD912"/>
<path transform="translate(523,483)" d="m0 0 7 1 4 4 1 9-4 6-2 1h-8l-5-4-2-5 1-6 6-5z" fill="#FDFDFD"/>
<path transform="translate(286,146)" d="m0 0h1l2 9v64l-3 7h-1z" fill="#ECD912"/>
<path transform="translate(226,471)" d="m0 0h7l2 1v9l-4 3h-7l-2-2-1-6z" fill="#FDDA27"/>
<path transform="translate(249,148)" d="m0 0h6v45h-1l-2-42h-2l-2 3v-5z" fill="#FDDA27"/>
<path transform="translate(226,471)" d="m0 0h7l2 1v6l-1-4-8 1-1 5 1 4-4-2-1-6z" fill="#EFD916"/>
</svg>
